<svg width="20" height="20" viewBox="0 0 20 20" fill="none" xmlns="http://www.w3.org/2000/svg">
<path d="M18.3332 3.89162C18.3332 2.89162 17.5165 2.14995 16.5248 2.23329H16.4748C14.7248 2.38329 12.0665 3.27495 10.5832 4.20829L10.4415 4.29995C10.1998 4.44995 9.79984 4.44995 9.55817 4.29995L9.34984 4.17495C7.8665 3.24995 5.2165 2.36662 3.4665 2.22495C2.47484 2.14162 1.6665 2.89162 1.6665 3.88329V13.95C1.6665 14.75 2.3165 15.5 3.1165 15.6L3.35817 15.6333C5.1665 15.875 7.95817 16.7916 9.55817 17.6666L9.5915 17.6833C9.8165 17.8083 10.1748 17.8083 10.3915 17.6833C11.9915 16.8 14.7915 15.875 16.6082 15.6333L16.8832 15.6C17.6832 15.5 18.3332 14.75 18.3332 13.95V3.89162Z" stroke="#0082EB" stroke-width="1.5" stroke-linecap="round" stroke-linejoin="round"/>
<path d="M10 4.57499V17.075" stroke="#0082EB" stroke-width="1.5" stroke-linecap="round" stroke-linejoin="round"/>
<path d="M6.4585 7.07499H4.5835" stroke="#0082EB" stroke-width="1.5" stroke-linecap="round" stroke-linejoin="round"/>
<path d="M7.0835 9.57499H4.5835" stroke="#0082EB" stroke-width="1.5" stroke-linecap="round" stroke-linejoin="round"/>
</svg>
