<svg width="20" height="20" viewBox="0 0 20 20" fill="none" xmlns="http://www.w3.org/2000/svg">
<path d="M11.6667 13.4666L8.3667 10.1666" stroke="#8F98A5" stroke-width="1.5" stroke-linecap="round" stroke-linejoin="round"/>
<path d="M11.6334 10.2L8.33337 13.5" stroke="#8F98A5" stroke-width="1.5" stroke-linecap="round" stroke-linejoin="round"/>
<path d="M11.6666 5.00002C13.3333 5.00002 13.3333 4.16669 13.3333 3.33335C13.3333 1.66669 12.5 1.66669 11.6666 1.66669H8.33329C7.49996 1.66669 6.66663 1.66669 6.66663 3.33335C6.66663 5.00002 7.49996 5.00002 8.33329 5.00002H11.6666Z" stroke="#8F98A5" stroke-width="1.5" stroke-linecap="round" stroke-linejoin="round"/>
<path d="M13.3333 3.35004C16.1083 3.50004 17.5 4.52504 17.5 8.33337V13.3334C17.5 16.6667 16.6667 18.3334 12.5 18.3334H7.5C3.33333 18.3334 2.5 16.6667 2.5 13.3334V8.33337C2.5 4.53337 3.89167 3.50004 6.66667 3.35004" stroke="#8F98A5" stroke-width="1.5" stroke-linecap="round" stroke-linejoin="round"/>
</svg>
