<svg width="20" height="20" viewBox="0 0 20 20" fill="none" xmlns="http://www.w3.org/2000/svg">
<path d="M3.5498 13.325C3.5498 14.8416 3.5498 14.8416 4.98314 15.8083L8.9248 18.0833C9.51647 18.425 10.4831 18.425 11.0748 18.0833L15.0165 15.8083C16.4498 14.8416 16.4498 14.8416 16.4498 13.325V9.18328C16.4498 7.66662 16.4498 7.66662 15.0165 6.69995L11.0748 4.42495C10.4831 4.08328 9.51647 4.08328 8.9248 4.42495L4.98314 6.69995C3.5498 7.66662 3.5498 7.66662 3.5498 9.18328V13.325Z" stroke="#0082EB" stroke-width="1.5" stroke-linecap="round" stroke-linejoin="round"/>
<path d="M14.5832 6.35833V4.16666C14.5832 2.5 13.7498 1.66666 12.0832 1.66666H7.9165C6.24984 1.66666 5.4165 2.5 5.4165 4.16666V6.3" stroke="#0082EB" stroke-width="1.5" stroke-linecap="round" stroke-linejoin="round"/>
<path d="M11 9.89997C11.075 10.0166 11.2416 10.1333 11.3666 10.1666L12.2166 10.3833C12.7416 10.5166 12.8833 10.9666 12.5416 11.3833L11.9833 12.0583C11.9 12.1666 11.8333 12.3583 11.8416 12.4916L11.8916 13.3666C11.925 13.9083 11.5416 14.1833 11.0416 13.9833L10.225 13.6583C10.1 13.6083 9.89165 13.6083 9.76665 13.6583L8.94998 13.9833C8.44998 14.1833 8.06665 13.9 8.09998 13.3666L8.14998 12.4916C8.15831 12.3583 8.09165 12.1583 8.00831 12.0583L7.44998 11.3833C7.10831 10.9666 7.24998 10.5166 7.77498 10.3833L8.62498 10.1666C8.75831 10.1333 8.92498 10.0083 8.99165 9.89997L9.46665 9.1583C9.76665 8.7083 10.2333 8.7083 10.525 9.1583L11 9.89997Z" stroke="#0082EB" stroke-width="1.5" stroke-linecap="round" stroke-linejoin="round"/>
</svg>
