<svg width="20" height="20" viewBox="0 0 20 20" fill="none" xmlns="http://www.w3.org/2000/svg">
<path fill-rule="evenodd" clip-rule="evenodd" d="M9.99984 15.1666C8.15889 15.1666 6.6665 13.6742 6.6665 11.8333C6.6665 9.99234 8.15889 8.49995 9.99984 8.49995C11.8408 8.49995 13.3332 9.99234 13.3332 11.8333C13.3332 13.6742 11.8408 15.1666 9.99984 15.1666Z" stroke="#0082EB" stroke-width="1.5" stroke-linecap="round" stroke-linejoin="round"/>
<path d="M10.2082 10.7916V11.5666C10.2082 11.8583 10.0582 12.1333 9.79984 12.2833L9.1665 12.6666" stroke="#0082EB" stroke-width="1.5" stroke-linecap="round" stroke-linejoin="round"/>
<path d="M13.3335 18.3333C16.6835 18.3333 17.2835 16.9917 17.4585 15.3583L18.0835 8.69167C18.3085 6.65833 17.7252 5 14.1668 5H5.83351C2.27518 5 1.69185 6.65833 1.91685 8.69167L2.54185 15.3583C2.71685 16.9917 3.31685 18.3333 6.66685 18.3333H13.3335Z" stroke="#0082EB" stroke-width="1.5" stroke-linecap="round" stroke-linejoin="round"/>
<path d="M6.6665 5V4.33333C6.6665 2.85833 6.6665 1.66666 9.33317 1.66666H10.6665C13.3332 1.66666 13.3332 2.85833 13.3332 4.33333V5" stroke="#0082EB" stroke-width="1.5" stroke-linecap="round" stroke-linejoin="round"/>
<path d="M18.0418 9.16667C16.6001 10.2167 15.0001 10.95 13.3418 11.3667" stroke="#0082EB" stroke-width="1.5" stroke-linecap="round" stroke-linejoin="round"/>
<path d="M2.18311 9.39168C3.57477 10.3417 5.09144 11.0167 6.66644 11.4" stroke="#0082EB" stroke-width="1.5" stroke-linecap="round" stroke-linejoin="round"/>
</svg>
