<svg width="20" height="20" viewBox="0 0 20 20" fill="none" xmlns="http://www.w3.org/2000/svg">
<path d="M6.81679 13.3499C6.18345 13.2916 5.55846 12.9999 5.07512 12.4916C3.97512 11.3332 3.97512 9.43324 5.07512 8.27491L6.90012 6.35825C8.00012 5.19992 9.80846 5.19992 10.9168 6.35825C12.0168 7.51659 12.0168 9.41658 10.9168 10.5749L10.0085 11.5332" stroke="#0082EB" stroke-linecap="round" stroke-linejoin="round"/>
<path d="M13.1836 6.64999C13.8169 6.70832 14.4419 6.99999 14.9252 7.50832C16.0252 8.66665 16.0252 10.5666 14.9252 11.725L13.1002 13.6416C12.0002 14.8 10.1919 14.8 9.08354 13.6416C7.98354 12.4833 7.98354 10.5833 9.08354 9.42497L9.99189 8.46665" stroke="#0082EB" stroke-linecap="round" stroke-linejoin="round"/>
<path d="M12.5 18.3333C16.6666 18.3333 18.3333 16.6667 18.3333 12.5V7.5C18.3333 3.33333 16.6666 1.66666 12.5 1.66666H7.49996C3.33329 1.66666 1.66663 3.33333 1.66663 7.5V12.5C1.66663 16.6667 3.33329 18.3333 7.49996 18.3333H12.5Z" stroke="#0082EB" stroke-linecap="round" stroke-linejoin="round"/>
</svg>
