<svg width="166" height="60" viewBox="0 0 166 60" fill="none" xmlns="http://www.w3.org/2000/svg">
<path d="M37.4304 8.80734C31.5075 8.86476 25.1972 11.2537 19.8413 17.3437C18.6422 18.4746 17.5116 19.6394 16.4209 20.7789C14.0167 23.2905 11.7693 25.6863 9.36389 27.3962C7.1978 28.9363 4.94241 29.9294 2.21545 30.0622V40.5946C8.53538 36.7516 9.23897 32.6455 15.7617 24.6205C16.5094 23.856 17.2532 23.0748 18.003 22.2914C19.1701 21.0718 20.3486 19.8535 21.5846 18.6988C27.0246 14.3828 32.3684 15.4257 34.1492 18.9917C34.6882 13.2179 40.9411 15.41 41.9788 21.2037C42.7886 17.2549 44.3609 16.0059 45.9667 17.4976C42.6695 23.3084 42.8483 30.4902 44.9816 36.8262C47.3851 43.9646 52.2171 50.2008 57.9126 52.5V50.0903C53.4196 47.841 49.1631 42.3899 47.0543 36.1267C45.1867 30.5795 44.9711 24.5169 47.3766 19.5265C48.3717 21.5093 49.2917 24.6131 49.9477 28.8464C52.0561 18.9339 56.3651 20.3546 56.5833 27.605C61.6221 19.837 50.4665 8.68148 37.4304 8.80734ZM33.252 20.0316C22.7608 21.2918 7.75292 42.1462 5.11233 58.0043H15.8057C15.9252 42.3066 24.1394 24.952 33.252 20.0316ZM37.0496 21.6359C28.0542 27.3846 23.6229 46.0966 24.181 58.0042H33.3728C28.5432 48.5424 30.6532 28.3949 37.0497 21.6356L37.0496 21.6359ZM39.613 24.7083C35.5483 34.3446 36.6007 47.1001 42.5612 58.0042H51.7019C42.8419 51.7025 37.6288 35.6852 39.6132 24.7082L39.613 24.7083Z" fill="#0082EB"/>
<path d="M62.54 33.61C62.54 32.35 62.792 31.228 63.296 30.244C63.812 29.26 64.544 28.498 65.492 27.958C66.44 27.406 67.556 27.13 68.84 27.13C69.944 27.13 70.928 27.34 71.792 27.76C72.668 28.168 73.376 28.75 73.916 29.506C74.468 30.262 74.834 31.144 75.014 32.152H70.802C70.61 31.732 70.334 31.408 69.974 31.18C69.626 30.94 69.224 30.82 68.768 30.82C68.096 30.82 67.562 31.072 67.166 31.576C66.782 32.08 66.59 32.758 66.59 33.61C66.59 34.462 66.782 35.14 67.166 35.644C67.562 36.148 68.096 36.4 68.768 36.4C69.224 36.4 69.626 36.286 69.974 36.058C70.334 35.818 70.61 35.488 70.802 35.068H75.014C74.834 36.076 74.468 36.958 73.916 37.714C73.376 38.47 72.668 39.058 71.792 39.478C70.928 39.886 69.944 40.09 68.84 40.09C67.556 40.09 66.44 39.82 65.492 39.28C64.544 38.728 63.812 37.96 63.296 36.976C62.792 35.992 62.54 34.87 62.54 33.61ZM81.2767 40.126C80.2567 40.126 79.3387 39.916 78.5227 39.496C77.7067 39.076 77.0647 38.476 76.5967 37.696C76.1407 36.904 75.9127 35.98 75.9127 34.924C75.9127 33.868 76.1407 32.95 76.5967 32.17C77.0647 31.378 77.7067 30.772 78.5227 30.352C79.3387 29.932 80.2567 29.722 81.2767 29.722C82.2967 29.722 83.2147 29.932 84.0307 30.352C84.8467 30.772 85.4827 31.378 85.9387 32.17C86.4067 32.95 86.6407 33.868 86.6407 34.924C86.6407 35.98 86.4067 36.904 85.9387 37.696C85.4827 38.476 84.8467 39.076 84.0307 39.496C83.2147 39.916 82.2967 40.126 81.2767 40.126ZM81.2767 36.67C81.6487 36.67 81.9607 36.526 82.2127 36.238C82.4647 35.938 82.5907 35.5 82.5907 34.924C82.5907 34.348 82.4647 33.916 82.2127 33.628C81.9607 33.328 81.6487 33.178 81.2767 33.178C80.9047 33.178 80.5927 33.328 80.3407 33.628C80.0887 33.916 79.9627 34.348 79.9627 34.924C79.9627 35.5 80.0827 35.938 80.3227 36.238C80.5747 36.526 80.8927 36.67 81.2767 36.67ZM87.3561 34.924C87.3561 33.856 87.5361 32.932 87.8961 32.152C88.2681 31.36 88.7721 30.76 89.4081 30.352C90.0441 29.932 90.7581 29.722 91.5501 29.722C92.2101 29.722 92.7741 29.86 93.2421 30.136C93.7221 30.4 94.0881 30.766 94.3401 31.234V26.68H98.3361V40H94.3401V38.614C94.0881 39.082 93.7221 39.454 93.2421 39.73C92.7741 39.994 92.2101 40.126 91.5501 40.126C90.7581 40.126 90.0441 39.922 89.4081 39.514C88.7721 39.094 88.2681 38.494 87.8961 37.714C87.5361 36.922 87.3561 35.992 87.3561 34.924ZM94.3581 34.924C94.3581 34.384 94.2201 33.964 93.9441 33.664C93.6681 33.364 93.3141 33.214 92.8821 33.214C92.4501 33.214 92.0961 33.364 91.8201 33.664C91.5441 33.964 91.4061 34.384 91.4061 34.924C91.4061 35.464 91.5441 35.884 91.8201 36.184C92.0961 36.484 92.4501 36.634 92.8821 36.634C93.3141 36.634 93.6681 36.484 93.9441 36.184C94.2201 35.884 94.3581 35.464 94.3581 34.924ZM109.958 34.834C109.958 35.11 109.94 35.374 109.904 35.626H103.478C103.538 36.502 103.904 36.94 104.576 36.94C105.008 36.94 105.32 36.742 105.512 36.346H109.742C109.598 37.066 109.292 37.714 108.824 38.29C108.368 38.854 107.786 39.304 107.078 39.64C106.382 39.964 105.614 40.126 104.774 40.126C103.766 40.126 102.866 39.916 102.074 39.496C101.294 39.076 100.682 38.476 100.238 37.696C99.8065 36.904 99.5905 35.98 99.5905 34.924C99.5905 33.868 99.8065 32.95 100.238 32.17C100.682 31.378 101.294 30.772 102.074 30.352C102.866 29.932 103.766 29.722 104.774 29.722C105.782 29.722 106.676 29.932 107.456 30.352C108.248 30.76 108.86 31.348 109.292 32.116C109.736 32.884 109.958 33.79 109.958 34.834ZM105.908 33.88C105.908 33.544 105.8 33.292 105.584 33.124C105.368 32.944 105.098 32.854 104.774 32.854C104.066 32.854 103.652 33.196 103.532 33.88H105.908ZM129.582 27.256L126.666 40H121.698L120.222 32.764L118.746 40H113.778L110.862 27.256H115.164L116.316 35.284L118.044 27.256H122.4L124.128 35.284L125.28 27.256H129.582ZM130.475 34.924C130.475 33.856 130.655 32.932 131.015 32.152C131.387 31.36 131.891 30.76 132.527 30.352C133.163 29.932 133.877 29.722 134.669 29.722C135.329 29.722 135.899 29.86 136.379 30.136C136.859 30.4 137.225 30.766 137.477 31.234V29.848H141.455V40H137.477V38.614C137.225 39.082 136.859 39.454 136.379 39.73C135.899 39.994 135.329 40.126 134.669 40.126C133.877 40.126 133.163 39.922 132.527 39.514C131.891 39.094 131.387 38.494 131.015 37.714C130.655 36.922 130.475 35.992 130.475 34.924ZM137.477 34.924C137.477 34.384 137.339 33.964 137.063 33.664C136.787 33.364 136.433 33.214 136.001 33.214C135.569 33.214 135.215 33.364 134.939 33.664C134.663 33.964 134.525 34.384 134.525 34.924C134.525 35.464 134.663 35.884 134.939 36.184C135.215 36.484 135.569 36.634 136.001 36.634C136.433 36.634 136.787 36.484 137.063 36.184C137.339 35.884 137.477 35.464 137.477 34.924ZM148.398 36.202L150.018 29.848H154.266L150.882 40H145.896L142.512 29.848H146.76L148.398 36.202ZM165.154 34.834C165.154 35.11 165.136 35.374 165.1 35.626H158.674C158.734 36.502 159.1 36.94 159.772 36.94C160.204 36.94 160.516 36.742 160.708 36.346H164.938C164.794 37.066 164.488 37.714 164.02 38.29C163.564 38.854 162.982 39.304 162.274 39.64C161.578 39.964 160.81 40.126 159.97 40.126C158.962 40.126 158.062 39.916 157.27 39.496C156.49 39.076 155.878 38.476 155.434 37.696C155.002 36.904 154.786 35.98 154.786 34.924C154.786 33.868 155.002 32.95 155.434 32.17C155.878 31.378 156.49 30.772 157.27 30.352C158.062 29.932 158.962 29.722 159.97 29.722C160.978 29.722 161.872 29.932 162.652 30.352C163.444 30.76 164.056 31.348 164.488 32.116C164.932 32.884 165.154 33.79 165.154 34.834ZM161.104 33.88C161.104 33.544 160.996 33.292 160.78 33.124C160.564 32.944 160.294 32.854 159.97 32.854C159.262 32.854 158.848 33.196 158.728 33.88H161.104Z" fill="#0082EB"/>
</svg>
