<svg width="20" height="20" viewBox="0 0 20 20" fill="none" xmlns="http://www.w3.org/2000/svg">
<path d="M3.35859 5.38336C1.75026 6.43336 1.75026 8.78336 3.35859 9.83336L8.37526 13.1084C9.27526 13.7 10.7586 13.7 11.6586 13.1084L16.6503 9.83336C18.2503 8.78336 18.2503 6.4417 16.6503 5.3917L11.6586 2.1167C10.7586 1.5167 9.27526 1.5167 8.37526 2.10836L3.35859 5.38336Z" stroke="#0082EB" stroke-width="1.5" stroke-linecap="round" stroke-linejoin="round"/>
<path d="M4.69144 10.9L4.68311 14.8083C4.68311 15.8666 5.49977 17 6.49977 17.3333L9.15811 18.2166C9.61644 18.3666 10.3748 18.3666 10.8414 18.2166L13.4998 17.3333C14.4998 17 15.3164 15.8666 15.3164 14.8083V10.9416" stroke="#0082EB" stroke-width="1.5" stroke-linecap="round" stroke-linejoin="round"/>
<path d="M17.8335 12.5V7.5" stroke="#0082EB" stroke-width="1.5" stroke-linecap="round" stroke-linejoin="round"/>
</svg>
